<?xml version="1.0" standalone="no"?>
<!DOCTYPE svg PUBLIC "-//W3C//DTD SVG 20010904//EN"
 "http://www.w3.org/TR/2001/REC-SVG-20010904/DTD/svg10.dtd">
<svg version="1.0" xmlns="http://www.w3.org/2000/svg"
 width="1772.000000pt" height="519.000000pt" viewBox="0 0 1772.000000 519.000000"
 preserveAspectRatio="xMidYMid meet">
<metadata>
Created by potrace 1.16, written by Peter Selinger 2001-2019
</metadata>
<g transform="translate(0.000000,519.000000) scale(0.100000,-0.100000)"
fill="#000000" stroke="none">
<path d="M15810 2010 l0 -1270 275 0 275 0 0 80 0 80 52 -50 c107 -102 246
-150 438 -151 246 -2 430 66 591 218 85 81 127 137 179 240 66 133 91 242 97
428 4 138 2 175 -17 265 -58 284 -216 498 -457 619 -106 53 -193 73 -349 78
-120 5 -152 2 -221 -15 -110 -28 -186 -67 -255 -131 l-58 -53 0 466 0 466
-275 0 -275 0 0 -1270z m1108 49 c112 -38 203 -135 245 -263 30 -88 29 -267
-1 -350 -91 -247 -331 -348 -573 -240 -218 98 -306 425 -178 664 95 179 307
258 507 189z"/>
<path d="M8050 1970 l0 -1230 280 0 280 0 0 470 0 470 555 0 555 0 0 240 0
240 -555 0 -555 0 0 275 0 275 625 0 625 0 0 245 0 245 -905 0 -905 0 0 -1230z"/>
<path d="M11580 1970 l0 -1230 890 0 890 0 0 245 0 245 -610 0 -610 0 0 985 0
985 -280 0 -280 0 0 -1230z"/>
<path d="M2194 2660 l-109 -380 -935 0 -935 0 -108 -373 c-59 -204 -107 -378
-107 -385 0 -9 197 -12 938 -12 l937 0 109 380 110 380 935 2 935 3 108 370
c59 204 107 376 108 383 0 9 -194 12 -938 12 l-939 0 -109 -380z"/>
<path d="M14185 2535 c-414 -93 -674 -443 -675 -910 0 -320 135 -614 355 -770
158 -112 303 -156 510 -156 191 0 332 47 443 146 l52 47 0 -76 0 -76 275 0
275 0 0 885 0 885 -275 0 -275 0 0 -76 0 -76 -52 47 c-67 58 -173 111 -263
130 -87 18 -289 18 -370 0z m421 -477 c166 -61 261 -200 271 -398 6 -112 -6
-182 -47 -268 -114 -241 -447 -306 -641 -125 -97 91 -140 200 -140 353 0 110
19 191 61 266 97 168 308 242 496 172z"/>
<path d="M10070 1920 l0 -230 585 0 585 0 0 230 0 230 -585 0 -585 0 0 -230z"/>
<path d="M2210 1198 c-51 -178 -100 -348 -109 -378 l-17 -55 -935 -3 -935 -2
-107 -373 c-59 -204 -107 -375 -107 -379 0 -5 422 -8 938 -8 l939 0 97 338
c54 185 102 354 108 374 l11 38 935 2 936 3 103 355 c56 195 105 367 108 383
l7 27 -940 0 -939 0 -93 -322z"/>
</g>
</svg>
